<svg xmlns="http://www.w3.org/2000/svg" xmlns:xlink="http://www.w3.org/1999/xlink" width="1920" zoomAndPan="magnify" viewBox="0 0 1440 809.999993" height="1080" preserveAspectRatio="xMidYMid meet" version="1.0"><defs><g/></defs><rect x="-144" width="1728" fill="#ffffff" y="-80.999999" height="971.999992" fill-opacity="1"/><g fill="#ffffff" fill-opacity="1"><g transform="translate(574.504369, 432.000613)"><g><path d="M 6.6875 0 L 6.6875 -51.890625 L 17.125 -51.890625 L 17.125 -8.15625 L 38.8125 -8.15625 L 38.8125 0 Z M 6.6875 0 "/></g></g><g transform="translate(615.707493, 432.000613)"><g><path d="M 29.078125 -4.15625 C 28.328125 -2.601562 26.875 -1.382812 24.71875 -0.5 C 22.5625 0.375 20.171875 0.8125 17.546875 0.8125 C 13.773438 0.8125 10.796875 -0.226562 8.609375 -2.3125 C 6.429688 -4.40625 5.34375 -7.046875 5.34375 -10.234375 L 5.34375 -37.765625 L 14.90625 -37.765625 L 14.90625 -11.78125 C 14.90625 -9.976562 15.539062 -8.628906 16.8125 -7.734375 C 18.09375 -6.847656 19.660156 -6.40625 21.515625 -6.40625 C 23.367188 -6.40625 25.046875 -6.898438 26.546875 -7.890625 C 28.046875 -8.890625 28.796875 -10.363281 28.796875 -12.3125 L 28.796875 -37.765625 L 38.359375 -37.765625 L 38.359375 0 L 29.359375 0 Z M 29.078125 -4.15625 "/></g></g><g transform="translate(659.547334, 432.000613)"><g><path d="M 1.265625 0 L 14.28125 -18.984375 L 1.296875 -37.765625 L 11.28125 -37.765625 L 19.125 -25.953125 L 26.96875 -37.765625 L 36.703125 -37.765625 L 24.046875 -18.84375 L 36.78125 0 L 27.25 0 L 19.296875 -11.890625 L 11.421875 0 Z M 1.265625 0 "/></g></g><g transform="translate(697.586395, 432.000613)"><g><path d="M 6.6875 0 L 6.6875 -51.890625 L 14.515625 -51.890625 L 41.484375 -16.3125 L 41.484375 -51.890625 L 50.765625 -51.890625 L 50.765625 0 L 42.921875 0 L 16.0625 -35.015625 L 16.0625 0 Z M 6.6875 0 "/></g></g><g transform="translate(755.031704, 432.000613)"><g><path d="M 20.75 0.8125 C 9.820312 0.8125 4.359375 -3.265625 4.359375 -11.421875 L 4.359375 -26.296875 C 4.359375 -30.160156 5.789062 -33.171875 8.65625 -35.328125 C 11.53125 -37.484375 15.550781 -38.5625 20.71875 -38.5625 C 25.894531 -38.5625 29.921875 -37.476562 32.796875 -35.3125 C 35.679688 -33.144531 37.125 -30.140625 37.125 -26.296875 L 37.125 -11.421875 C 37.125 -5.359375 34.242188 -1.5625 28.484375 -0.03125 C 26.328125 0.53125 23.75 0.8125 20.75 0.8125 Z M 20.75 -5.84375 C 25.289062 -5.84375 27.5625 -7.5625 27.5625 -11 L 27.5625 -26.71875 C 27.5625 -28.570312 26.988281 -29.894531 25.84375 -30.6875 C 24.695312 -31.488281 23 -31.890625 20.75 -31.890625 C 16.195312 -31.890625 13.921875 -30.164062 13.921875 -26.71875 L 13.921875 -11 C 13.921875 -9.15625 14.488281 -7.832031 15.625 -7.03125 C 16.757812 -6.238281 18.46875 -5.84375 20.75 -5.84375 Z M 20.75 -5.84375 "/></g></g><g transform="translate(796.516077, 432.000613)"><g><path d="M 23.34375 0.421875 C 17.601562 0.421875 13.488281 -0.441406 11 -2.171875 C 8.519531 -3.910156 7.28125 -7.179688 7.28125 -11.984375 L 7.28125 -31.671875 L 2.25 -31.671875 L 2.25 -37.765625 L 7.5625 -37.765625 L 8.4375 -49.890625 L 16.84375 -49.890625 L 16.84375 -37.765625 L 25.8125 -37.765625 L 25.8125 -31.671875 L 16.84375 -31.671875 L 16.84375 -12.65625 C 16.84375 -10.3125 17.398438 -8.726562 18.515625 -7.90625 C 19.628906 -7.09375 21.765625 -6.6875 24.921875 -6.6875 L 26.046875 -6.6875 L 25.703125 0.421875 Z M 23.34375 0.421875 "/></g></g><g transform="translate(825.098107, 432.000613)"><g><path d="M 13.921875 -22.890625 L 27.5 -22.890625 L 27.5 -27.3125 C 27.5 -29.59375 26.582031 -30.988281 24.75 -31.5 C 23.789062 -31.78125 22.332031 -31.914062 20.375 -31.90625 C 18.414062 -31.894531 16.847656 -31.5625 15.671875 -30.90625 C 14.503906 -30.25 13.921875 -28.992188 13.921875 -27.140625 Z M 14.140625 0.171875 C 12.265625 -0.222656 10.578125 -0.890625 9.078125 -1.828125 C 5.929688 -3.753906 4.359375 -7.082031 4.359375 -11.8125 L 4.359375 -26.546875 C 4.359375 -30.335938 5.800781 -33.285156 8.6875 -35.390625 C 11.570312 -37.503906 15.5 -38.5625 20.46875 -38.5625 C 31.175781 -38.5625 36.53125 -34.4375 36.53125 -26.1875 L 36.53125 -17.046875 L 13.921875 -17.046875 L 13.921875 -10.90625 C 13.921875 -8.8125 14.4375 -7.441406 15.46875 -6.796875 C 16.5 -6.160156 18.242188 -5.84375 20.703125 -5.84375 C 23.171875 -5.84375 24.625 -5.957031 25.0625 -6.1875 C 26.125 -6.769531 26.804688 -7.476562 27.109375 -8.3125 C 27.410156 -9.144531 27.585938 -10.242188 27.640625 -11.609375 L 36.5 -11.609375 C 36.351562 -5.796875 34.300781 -2.113281 30.34375 -0.5625 C 28.019531 0.332031 25.207031 0.785156 21.90625 0.796875 C 18.601562 0.804688 16.015625 0.597656 14.140625 0.171875 Z M 14.140625 0.171875 "/></g></g></g></svg>